<svg xmlns="http://www.w3.org/2000/svg" width="13.917" height="17.004" viewBox="0 0 13.917 17.004">
  <g id="file" transform="translate(-86.9)">
    <path id="Path_9371" data-name="Path 9371" d="M208.713,108.4h-.5v12.215a1.474,1.474,0,0,1-1.472,1.472H197.7v.453a.94.94,0,0,0,.939.939h10.071a.94.94,0,0,0,.939-.939v-13.2A.938.938,0,0,0,208.713,108.4Z" transform="translate(-108.833 -106.475)" fill="#03aeee"/>
    <path id="Path_9372" data-name="Path 9372" d="M92.873,15.079h5.036a.94.94,0,0,0,.939-.939V.939A.94.94,0,0,0,97.909,0H91.2V.311a.911.911,0,0,1,.005.1V2.983a1.324,1.324,0,0,1-1.323,1.323H87.308c-.027,0-.055,0-.082,0H86.9V14.14a.94.94,0,0,0,.939.939h5.034Zm.19-3.193H89.78a.444.444,0,0,1,0-.888h3.285a.444.444,0,1,1,0,.888ZM96.348,9.62H89.78a.444.444,0,0,1,0-.888h6.568a.444.444,0,1,1,0,.888ZM89.78,6.327h6.568a.444.444,0,1,1,0,.888H89.78a.444.444,0,0,1,0-.888Z" transform="translate(0)" fill="#03aeee"/>
    <path id="Path_9373" data-name="Path 9373" d="M87.943,4.559h2.58a.788.788,0,0,0,.781-.781V1.2a.4.4,0,0,0-.4-.4.385.385,0,0,0-.277.117L87.662,3.884A.4.4,0,0,0,87.943,4.559Z" transform="translate(-0.635 -0.786)" fill="#03aeee"/>
  </g>
</svg>
